<?xml version="1.0" encoding="UTF-8" standalone="no"?>
<!-- Created with Inkscape (http://www.inkscape.org/) -->

<svg
   version="1.1"
   id="svg1"
   width="1404.2"
   height="590.61334"
   viewBox="0 0 1404.2 590.61334"
   sodipodi:docname="lokalrådet_f_r_logo til skilte mm.eps"
   xmlns:inkscape="http://www.inkscape.org/namespaces/inkscape"
   xmlns:sodipodi="http://sodipodi.sourceforge.net/DTD/sodipodi-0.dtd"
   xmlns="http://www.w3.org/2000/svg"
   xmlns:svg="http://www.w3.org/2000/svg">
  <defs
     id="defs1" />
  <sodipodi:namedview
     id="namedview1"
     pagecolor="#ffffff"
     bordercolor="#000000"
     borderopacity="0.25"
     inkscape:showpageshadow="2"
     inkscape:pageopacity="0.0"
     inkscape:pagecheckerboard="0"
     inkscape:deskcolor="#d1d1d1">
    <inkscape:page
       x="0"
       y="0"
       inkscape:label="1"
       id="page1"
       width="1404.2"
       height="590.61334"
       margin="0"
       bleed="0" />
  </sodipodi:namedview>
  <g
     id="g1"
     inkscape:groupmode="layer"
     inkscape:label="1">
    <g
       id="group-R5">
      <path
         id="path2"
         d="m 2569,147.879 c 0,-4 -13,-8 -30,-8 -28,0 -30,3 -30,37 v 37 l 30,-29 c 17,-16 30,-32 30,-37 z m -1350,165 c 0,-26 -4,-33 -19,-33 -15,0 -27,-3 -37,-7 -14,-5 -12,4 11,46 31,55 45,53 45,-6 z m -426.004,-3 c -6,-56 -9,-61 -28,-56 -11,3 -29,6 -38,6 -9,0 -18,4 -18,10 0,10 83,108 88,104 2,-1 0,-30 -4,-64 z m 2087.004,63 c 45,-33 47,-42 15,-72 l -24,-22 -15,43 c -8,24 -18,51 -22,61 -10,24 0,21 46,-10 z m -686,-9 c 19,-14 36,-20 43,-15 7,4 23,6 36,4 16,-3 27,3 40,21 9,14 20,26 24,26 24,0 102,-193 102,-251 0,-58.0001 -212,10 -236,35 -6,6 -19,32 -28,59 -10,26 -21,45 -24,43 -4,-2 -8,23 -10,56 -2.67,43.332 15,50.66 53,22 z m -848,21 45,-35 -47,-20 c -25,-11 -49,-20 -51,-20 -2,0 -4,25 -4,55 0,30 3,55 6,55 3,0 26,-16 51,-35 z m 644,-2 c 13,-31 19,-63 17,-95 l -3,-49 -94,46 c -51,25 -92,48 -89,50 6,6 142,95 146,95 4,0 12,-21 23,-47 z m 697,110 c 16,-21 55,-88 85,-149 52,-104 55,-113 39,-127 -26,-22 -52,-34 -114,-50 l -58,-15 -21,34 c -11,19 -26,31 -31,28 -7,-4 -8,-2 -4,4 3,6 -14,44 -38,84 -25,40 -48,90 -52,110 l -6,38 37,-16 c 34,-14 39,-14 54,0 10,9 25,16 33,16 8,0 18,13 23,40 4,22 10,40 15,40 5,0 22,-17 38,-37 z m -1691.004,40 c 16.004,-23 27.004,-28 60.004,-27 24,0 52,9 70,22 60,43 58,-2 -8,-154 -27,-65 -51,-119 -52,-121 -8,-8 -216.004,-13 -220.004,-6 -15,25 97,313 122,313 25,0 16,-12 28,-27 z m -542,-28 -18,-46 -18,27 c -12,18.66 -7.668,35.66 13,51 18,12 33,21 36,18 3,-3 -4,-24 -13,-50 z m 1115.004,76 c 0,-83 -5,-86 -66,-38 -43,33 -51,43 -35,45 10,2 27,12 37,23 9,10 28,19 41,19 21,0 23,-4 23,-49 z m -1221.004,-6 c 0,-5 -8,6 -19,25 -11,19 -19,40 -19,45 0,5 8,-6 19,-25 11,-19 19,-39 19,-45 z m 1947.004,-10 c 19,-14 34,-32 34,-39 0,-7 -15,-36 -32,-64 -24,-37 -39,-50 -55,-49 -23,2 -163,88 -160,99 1,3 38,37 82,75 l 80,70 8,-33 c 5,-19 23,-44 43,-59 z m -1243,77 c 32,-32 54,-61 51,-65 -4,-4 -20,-7 -35,-7 -15,0 -32,7 -43,28 -8,15 -23,35 -34.004,45 -18,17 -20,57 -3,57 17.004,0 32.004,-26 64.004,-58 z m -379.004,8 c 3,-22 11,-40 18,-40 7,0 19,-7 29,-16 14,-13 24,-14 55,-5 21,6 39,9 41,7 10,-9 -33,-94 -95,-190 -39,-60 -73,-113 -75,-119 -5,-16 -79,29 -126,76 l -44,45 58,109 c 55,102 113,183 126,177 4,-2 9,-22 13,-44 z m 713.004,72 c 9,-16 30,-36 47,-46 28,-16 29,-19 13,-28 -25,-13 -59,-3 -96,28 -29,24 -30,26 -15,50 21,31 31,30 51,-4 z m 1690,26 c 28,-10 32,-15 26,-37 -10,-45 -20,-44 -46,3 -18.67,34 -12,45.332 20,34 z m -170,35 c 16,-16 57,-65 92,-111 49,-64 61,-87 56,-105 -11,-34 -88,-177 -96,-177 -8,0 -44,39 -89,88 -75,79 -124,155 -113,175 2,4 19,7 38,7 27,0 34,5 39,25 4,14 11,25 16,25 5,0 10,23 10,50 0,27 4,50 9,50 5,0 22,-12 38,-27 z m -767,92 c 0,-6 -9,-20 -20,-30 -19,-18 -20,-17 -20,3 0,33 10,51 26,45 16,-6 14,-11 14,-18 z m -1903.004,13 c -3,-8 -6,-5 -6,6 -1,11 2,17 5,13 3,-3 4,-12 1,-19 z m 33,28 c 0,-3 -4,-8 -10,-11 -5,-3 -10,-1 -10,4 0,5 5,11 10,11 5,0 10,-2 10,-4 z m 646,-157 c 6,-48 -10,-79 -40,-79 -30,0 -43,-7 -69,-16 -59,-20 -87,-8 -87,39 -1,18 -7,50 -15,71 -17,48 -7,72 34,81 20,4 34,17 45,40 l 17,34 55,-65 c 42,-49 57,-75 60,-105 z m 1081.004,179 c 6,-7 13,-51 17,-98 l 7,-86 -83,-68 c -121,-101 -155,-121 -172,-106 -25,20 -39,79 -33,138 3,30 9,58 14,63 5,5 27,9 51,10 29,2 49,10 64,26 12,13 26,23 32,23 6,0 27,25 46,55 37,59 42,62 57,43 z m -1552.004,-12 c -6,-43 -4,-54 9,-59 9,-4 16,-15 16,-26 0,-21 18,-31 56,-31 38,0 24,-2 24,-5 0,-22 -50,-93 -112,-159 l -75,-80 -33,80 c -18,43 -38,96 -46,116 l -13,37 61,76 c 49,61 94,102 116,105 2,0 0,-24 -3,-54 z m 239,161.001 48,-69 -31,-32.001 c -20,-21 -31,-42 -31,-61 -1,-53 -18,-65 -86,-58 -81,8 -86,17 -78,133 7,104.001 14,120.001 51,120.001 37,0 34,11 46,24 12,14 25,22 28,18 3,-4 27,-38 53,-75 z m 362.004,-42 c 20,-23 58,-53.001 86,-66.001 40,-19 48,-27 44,-44 -3,-11 -6,-30 -6,-42 0,-12 -4,-23 -10,-23 -6,0 -39,36 -76,80 -37,44 -71,77.001 -77,73.001 -6.004,-3 -7.004,-2 -4,4 9,14 -22.004,55 -35.004,47 -6,-4 -8,-3 -5,3 4,6 -7,28 -23,49 -37,49 -37,60 -2,72 26,9 28,7 50,-50 12,-33 39.004,-79 58.004,-103 z m 2030,102 73,-62 v -62 c 1,-53.001 -17,-212.001 -24,-221.001 -7,-9 -156,106 -188,145 l -37,46 33,23.001 c 42,28 53,82 31,153 -7,25 -14,49 -14,53 0,17 57,-17 126,-75 z m 84,66 v -37 l -30,29 c -16,16 -30,32 -30,37 0,5 14,8 30,8 28,0 30,-3 30,-37 z m -290,84 c 0,-11 11,-51 25,-90 33,-91 27,-121 -31,-164 -40,-29 -45,-31 -59,-16 -9,8 -19,28 -22,44 -11,58 -95,81 -114,32 -21,-57 27,-143.001 81,-143.001 54,0 30,-7 35,-17 11,-28 16,-197 7,-211 -5,-7 -28,-14 -51,-17 -24,-2 -51,-7 -61,-10 -23,-7 -37,12 -43,60 -7,50 -56,99 -90,89 -49,-14 -58,-53 -27,-114 14,-28 28,-40 50,-45 33,-7 48,-41 32,-72 -5,-10 -13,-41 -17,-70 -4,-32 -12,-54 -22,-57 -18,-7 -154,33 -165,49 -5,5 -7,26 -6,46 2,41 -19,80 -57,105 l -25,16 93,102 c 158,172 277,319.001 341,421.001 10,17 34,49 54,73 33,41 35,42 53,26 11,-9 19,-26 19,-37 z m -489,52 c 23,-12 72,-116 62,-133 -13,-22 -127,-159 -181,-217.001 l -54,-59 -34,47 c -29,40.001 -34,55.001 -32,92.001 3,41 5,44 45,60 53,21 117,93 144,165 12,31 24,56 26,56 2,0 13,-5 24,-11 z m 169,13 c 0,-5 -9,-17 -20,-27 -20,-18 -20,-17 -20,8 0,25 5,27 20,27 15,0 20,-4 20,-8 z m -1503,-9 c -3,-10 -5,-4 -5,12 0,16 2,24 5,18 2,-7 2,-21 0,-30 z m -707.004,-18 c -25,-72 -18,-121 23,-157 l 30,-27 -27,-40 c -15,-21 -52,-55 -82,-75 -52,-35 -54,-36.001 -55,-14 -1,22 -1,22 -9,-2 -8,-24.001 -7,8 -5,60 2,69 1,76 -5,35 l -8,-50 v 65 c 1,36 6,68 12,72 7,5 7,8 1,8 -6,0 -9,19 -7,45 3,38 10,51 46,81 22,20 50,40 61,44 41,18 45,12 25,-45 z m 164,27 c 43,-74 47,-85 34,-100 -8,-9 -21,-32 -28,-50 -7,-18 -16,-35 -21,-37 -4,-3 -28,9 -53,26 -59,42 -64,72 -31,169 14,40 25,83 25,94 0,13.33 4.332,13.66 13,1 7,-11 35,-57 61,-103 z m -287,161 c -3,-10 -5,-4 -5,12 0,16 2,24 5,18 2,-7 2,-21 0,-30 z m 10,70 c -3,-10 -5,-4 -5,12 0,16 2,24 5,18 2,-7 2,-21 0,-30 z m 490,10 c -3,-10 -5,-4 -5,12 0,16 2,24 5,18 2,-7 2,-21 0,-30 z m 2346.004,72 c 40,-17 41,-18 61,-140 21,-132 28,-205 20,-205 -36,0 -149,49 -175,76 l -31,32 21,40 c 15,30 18,47 12,70 -7,23 -3,42 16,86 14,31 29,56 33,56 4,0 24,-7 43,-15 z m -2826.004,-22 c -3,-10 -5,-4 -5,12 0,16 2,24 5,18 2,-7 2,-21 0,-30 z m 415,37 c 12,0 18,-14 23,-61 5,-39 16,-74 31,-97 13,-19 24,-41 24,-48 0,-7 3,-14 8,-14 4,-1 26,-18 50,-40 28.664,-26 38,-49 28,-69 -9,-16 -21,-33 -27,-37 -8,-4 -9,-3 -5,5 10,15 -62,133 -76,125 -14,-8 -8,-2 -4,4 9,15 -12,54 -24,47 -6,-4 -7,1 -3,11 5,13 3,15 -7,9 -9,-5 -11,-4 -6,3 10,16 -12,54 -26,46 -14,-8 -8,-3 -4,4 4,6 -5,34 -19,61 -31,61 -31,65 -2,57 12,-3 29,-6 39,-6 z m 55,-17 c -3,-10 -5,-4 -5,12 0,16 2,24 5,18 2,-7 2,-21 0,-30 z m -460,35 c -3,-7 -5,-2 -5,12 0,14 2,19 5,13 2,-7 2,-19 0,-25 z m 2833.004,61 c 0,-6 -4,-7 -10,-4 -5,3 -10,11 -10,16 0,5 5,7 10,4 6,-3 10,-11 10,-16 z m -2823.004,-1 c -3,-8 -6,-5 -6,6 -1,11 2,17 5,13 3,-3 4,-12 1,-19 z m 63,-71 c 5,-26 17,-61 25,-77 10,-19.34 -0.336,-41 -31,-65 -52,-39 -84,-45 -84,-17 0,28 9,69 20,131 11,62 18,123 15,135 -3,11 5,3 19,-19 14,-21 30,-61 36,-88 z m 2433.004,73 c 14,0 27,6 30,13 2,6 8,9 12,5 14,-13 -175,-338 -196,-338 -21,0 -91,44 -99,66 -15,38 -14,39 40,80 28,21 50,44 50,50 0,6 11,25 24,41 13,16 26,49 30,77 12,79 15,81 51,42 21,-23 42,-36 58,-36 z m -2220.004,159 c 30,-30 30,-32 12,-45 -28,-21 -41,-17 -55,16 -11,28 -9,60 5,60 14,0 21,-14 38,-31 z m 2267.004,114 c 0,-27 -7,-29 -32,-6 -17,15 -17,17 -1,35 19,21 33,9 33,-29 z m -2303.004,85 c -3,-7 -5,-2 -5,12 0,14 2,19 5,13 2,-7 2,-19 0,-25 z m -59,29 c 2,-54 0,-67 -12,-67 -12,0 -20,16 -27,40 -7,24 -16,37 -23,33 -6,-4 -5,1 3,10 7,9 11,24 7,32 -3,9 -2,13 4,10 6,-3 10,-1 10,5 0,6 8,10 18,8 14,-3 18,-16 20,-71 z m 2500.004,46 25,-62 -20,-52 c -15,-41 -26,-55 -46,-60 -25,-7 -29,-3 -47,38 -25,57 -25,64 2,141 29,83 50,82 86,-5 z m -131,41 c -8,-47 -13,-51 -37,-29 -30,27 -23,61 13,63 29,2 30,1 24,-34 z m -2264.004,179 c 14,-17 13,-20 -8,-45 -30,-35 -41,-35 -53,0 -18,52 25,84 61,45 z m 2539.004,82 c -7,-25 -9,-26 -15,-11 -6,15 -2,25 4,33 16,19 20,12 11,-22 z m -2845.004,223 c -3,-7 -5,-2 -5,12 0,14 2,19 5,13 2,-7 2,-19 0,-25 z m 89,24 c 18,-15 33,-30 33,-34 1,-3 -17,-44 -39,-89 -22,-46 -40,-74 -41,-63 0,18 -1,18 -9,-1 -6,-14 -8,-6 -4,25 3,33 2,40 -5,25 -7,-15 -9,-6 -5,30 2,29 1,42 -4,32 -4,-10 -7,8 -7,48 0,65 0,66 24,60 14,-4 39,-18 57,-33 z m 334,48 c -6,-11 -13,-20 -16,-20 -3,0 0,9 6,20 6,11 13,20 16,20 3,0 0,-9 -6,-20 z m 2006.004,-53 c 34,-56 75,-127 92,-157 30,-53 30,-56 11,-57 -30,-3 -68,-30 -81,-59 -6,-13 -14,-24 -17,-24 -18,1 -29,20 -36,60 -10,71 -54,150 -108,200 -49,45 -50,46 -36,75 9,20 28,35 59,47 25,9 47,17 50,17 3,1 33,-45 66,-102 z m 218,117 c 9,-24 2,-26 -12,-4 -14,22 -8,20 -3,20 5,0 12,-7 15,-16 z m 272,44 c -7,-67 -34,-233 -41,-258 -5,-14 -92,-57 -99,-49 -2,2 -12,22 -22,44 -20,43 -22,61 -10,112 5,23 2,42 -13,71 l -21,41 40,31 c 31,24 113,58 169,69 2,1 1,-27 -3,-61 z m -2341.004,22 c 5,-21 -2,-31 -45,-65 -27,-22 -50,-44 -50,-50 0,-6 -11,-26 -24,-44 -14,-18 -27,-55 -31,-82 -8,-56 -25,-79 -61,-79 -36,0 -30,14 -9,50 17,31 19,44 3,34 -7,-4 -8,-3 -4,5 4,6 11,9 16,6 11,-7 22,24 13,37 -3,6 -1,8 5,5 6,-4 23,17 41,48 34,59 37,70 19,59 -7,-4 -8,-3 -4,5 4,6 11,9 16,6 5,-3 14,3 19,14 14,26 14,34 -1,25 -8,-4 -10,-3 -5,2 5,5 14,9 20,9 6,0 12,6 15,14 3,9 0,11 -8,6 -9,-5 -11,-4 -6,4 4,6 11,9 16,6 5,-3 14,4 20,16 10,18 14,19 25,8 11,-11 16,-25 20,-39 z m 1725.004,13 c 0,-7 -9,-13 -20,-13 -16,0 -20,7 -20,38 v 37 l 20,-25 c 11,-14 20,-31 20,-37 z m 630,142 c 0,-32 -2,-35 -30,-35 -28,0 -30,3 -30,7 0,7 51,63 57,63 6,0 3,-16 3,-35 z m -2654.004,12 c 3,-18 11,-37 16,-44 7,-9 -6,-40 -43,-103 l -52,-91 -19,58 c -19,58 -39,157 -31,149 8,-8 43,27 38,35 -3,4 3,6 13,5 9,0 16,5 14,12 -1,8 2,11 7,8 5,-4 12,-2 16,3 11,18 34,0 41,-32 z m -299,76 c -2,-16 -4,-5 -4,22 0,27 2,40 4,28 2,-13 2,-35 0,-50 z m 22,110 c 0,9 4,17 8,17 18,0 103,-69 128,-104 l 28,-39 -30,-26 c -39,-33 -49,-89 -28,-157 8,-26 13,-49 12,-50 -1,-1 -14,0 -29,3 -15,3 -45,25 -67,48 -22,24 -42,40 -45,37 -3,-3 -6,25 -6,61 0,36 4,67 11,67 7,0 11,27 7,93 -3,50 -2,79 2,62 4,-16 8,-22 9,-12 z m 1959.004,69 c 11,10 17,8 30,-9 10,-11 61,-72 115,-135 53,-64 97,-123 97,-132 0,-9 -44,-113 -54,-122 0,-1 -11,-4 -22,-8 -20,-6 -25,1 -49,63 -14,38 -33,72 -41,75 -8,3 -19,17 -25,30 -7,15 -33,35 -66,51 -51,24 -54,28 -52,58 2,18 -1,39 -5,46 -7,10 -5,12 3,7 8,-6 11,-2 9,10 -2,11 2,18 9,17 6,-1 17,4 23,12 10,12 10,19 -1,33 -11,14 -11,15 1,5 10,-10 17,-10 28,-1 z m -1924.004,42 c 3,-8 2,-12 -4,-9 -6,3 -10,10 -10,16 0,14 7,11 14,-7 z m -27,14 c -3,-8 -6,-5 -6,6 -1,11 2,17 5,13 3,-3 4,-12 1,-19 z m 411,20 c 7,-7 12,-26 12,-43 0,-17 10,-41 25,-58 29,-30 30,-25 -33,-114 -42,-59 -44,-61 -62,-43 -18,18 -27,16 -42,13 -34,-6 -47,25 -52,127 -5,102 3,117 65,123 24,2 51,4 60,5 8,1 20,-3 27,-10 z m 506.004,6 c 3,-9 6,-33 6,-53 0,-35 -3,-39 -42,-56 -62,-27 -121,-92 -149.004,-164 -20,-52 -27,-60 -44,-55 -11,4 -23,12 -27,18 -7,10 -8,16 -8,44 0,28 3,7 8,7 13,0 32,16 32,26 0,10 -6,7 -12,3 -7,-4 -10,-4 -6,0 3,4 8,6 11,4 6,-5 37,23 37,34 0,11 -6,6 -12,2 -9,-5 -9,-3 1,9 7,9 17,14 22,12 9,-6 31.004,29 24.004,39 -3,3 -2,4 2,1 8,-6 53,35 53,48 0,13 -8,3 -17,-4 -10,-7 -5,1 11,19 16,17 33,29 37,27 4,-3 18,8 31,24 27,35 34,37 42,15 z m 961,-18 c -29,-21 -41,-10 -37,30 l 4,36 26,-26 c 26,-25 26,-26 7,-40 z m 1019,51 c 7,-29 26,-194 26,-227 0,-33 -19,-40 -83,-91 -121,-98 -144,-100 -113,-12 21,61 11,125 -25,149 -16,10 -29,22 -29,25 0,20 72,91 133,131 40,25 75,47 78,47 4,1 9,-9 13,-22 z m -1598,94 c 30,-37 58,-101 43,-101 -15,0 -9,-18 -9,-39 0,-66 80,-140 117,-109 27,22 32,51 13,88 -10,19 -17,39 -16,45 0,6 26,8 60,6 74,-4 105,-25 154,-106 19,-33 47,-74 60,-92 26,-35 22,-57 -9,-48 -44,14 -32,-99 15,-144 52,-49 120,-3 89,60 -20,40 -11,46 29,21 18,-11 50,-25 70,-31 48,-16 85,-66 124,-166 17,-44 34,-88 39,-97 5,-13 3,-18 -8,-18 -11,0 -18,4 -22,10 -9,14 -36,0 -44,-24 -20,-51 38,-146 89,-146 51,0 49,17 43,57 l -6,35 80,-66 c 84,-70 123,-128 123,-182 0,-54 6,-53 14,-82 7,-29 11,-52 9,-52 -3,0 -18,8 -34,17 -63,37 -94,-44 -45,-118 36,-54 106,-68 106,-20 0,48 17,30 60,-29 23,-33 49,-65 56,-71 11,-9 3,-24 -38,-77 -28,-37 -54,-66 -57,-64 -3,1 -6,12 -6,25 0,13 -7,23 -34,25 -77,8 -138,-123 -76,-164 23,-15 26,-15 51,5 25,20 28,20 29,19 2,-2 -3,-32 -11,-68 -7,-36 -14,-75 -14,-88 0,-35 -46,-107 -88,-138 -20,-15 -54,-43 -76,-63 l -39,-36 6,36 c 6,40 1,52 -26,62 -45,17 -107,-51 -107,-115 0,-64 19,-61 54,-52 31,7 32,4 7,-44 -10,-20 -26,-62 -36,-92 -17,-52 -76,-130 -100,-130 -24,0 -36,-13 -68,-30 -56,-28 -58,-28 -51,-7 3,12 10,28 14,36 10,19 -8,59 -30,66 -46,15 -110,-55 -110,-118 0,-63 14,-53 42,-49 23,4 16,-14 -28,-80 -44,-66.001 -43,-67.001 -55,-88.001 -13,-22 -26,-40 -30,-40 -4,0 -15,-7 -23,-16 -17,-16 -156,-30 -156,-16 0,14 9,18 20,32 36,46 18,110 -32,110 -50,0 -123,-127 -83,-157 11,-7 14,-13 8,-13 -6,0 -14,-12 -18,-27 -9,-39 -63,-103 -86,-103 -23,0 -18,-4 -13,-12 5,-10 3,-10 -7,0 -8,7 -14,18 -14,25 0,7 -7,12 -16,11 -9,-1 -16,4 -16,10 0,20 -54,106 -63,101 -5,-3 -12,0 -16.01,6 -3.99,8 -3,9 4,5 19,-12 14,5 -13,40 -31,41 -32,54 -1,54 31,0 27,7 30,16 9,24 7,56.001 -3,50.001 -5,-4 -7,3 -4,14 4,14 -6,31 -30,55 -39,39 -66,44 -91,16 -16,-17 -16,-25 -6,-56 7,-20 10,-38.001 8,-40.001 -6,-6 -131,55.001 -153,75.001 -11,11 -24,19 -30,19 -5,1 -10,7 -10,14 -1,30 -37,117 -47,111 -6.994,-5 -7.994,-2 -4,5 9,14 -12.994,73 -23.994,66 -5,-3 -6,4 -3,15 6,24 7,24 33.994,8 17,-11 22,-10 35,6 24,33 10,127 -16,111 -6,-3 -7,0 -4,8 7,18 -31.994,47 -61.994,47 -30,0 -48,-25 -40,-60 3,-17 3,-30 0,-30 -5,0 -95,74 -140,116 -12,12 -25,20 -27,17 -3,-2 -8,1 -13,8 -4,8 -3,10 4,5 16,-10 15,5 -2,29 -7,11 -18,54 -24,95 -7,41 -15,86 -18,100 l -7,25 25,-22 c 49,-46 96,-16 84,53 -8,38 -47,90 -76,99 -25,8 -61,-11 -54,-29 8,-21 -17,-32 -28,-12 -5,9 -13,14 -19,11 -5,-4 -6,2 -2,11 5,13 3,15 -8,9 -8,-4 -11,-5 -7,0 4,4 3,15 -2,25 -5,10 -3,29 10,56 35,67 21,114 -33,114 -54,0 -36,-7 -49,-27 l -16,-28 -6,25 c -10,49 -14,156 -5,135 7,-17 8,-15 6,10 -1,17 -6,33 -12,37 -6,5 -3,8 7,8 10,0 27,-13 40,-30 44,-60 106,-23 88,54 -5,21 -18,48 -29,59 l -20,20 30,44 c 31,44 52,49 47,10 -2,-18 3,-23 30,-25 78,-8 139,123 77,164 -25,16 -27,16 -50,-6 -31,-29 -40,-21 -26,22 5,18 13,58 17,88 8,67 43,129 92,166 20,15 54,43 76,63 l 38,36 -6,-37 c -5,-26 -2,-40 9,-52 20,-20 28,-20 65,-1 77.994,41 82.994,193 5,157 -30,-14 -32,-5 -6,46 10,20 25.994,62 35.994,92 17,52 76,130 100,130 24,0 36,14 68,30 47,24 58,26 52,12 -4,-9 -9,-34 -12,-54 -5,-33 -2,-39 19,-49 52,-23 118,44 118,119 0,75 -15,48 -42,44 -20,-4 -16,20 8,48 7,8 30,45 51.01,83 41,70 96.99,122 118,109 7,-4 25,-22 41,-41 z m -839.004,22 c -3,-10 -5,-4 -5,12 0,16 2,24 5,18 2,-7 2,-21 0,-30 z m 2407.004,14 c 6,-25 3,-29 -28,-42 -20,-8 -37,-15 -40,-15 -3,0 8,22 23,50 27,52 34,53 45,7 z m -2284.004,38 c 80,-26 85,-29 88,-62 2,-23 -6,-41 -35,-74 -21,-25 -48,-58 -61,-74 l -23,-29 -22,26 c -12,15 -32,29 -44,33 -28,8 -39,45 -24,86 6,18 11,42 11,53 0,28 29,69 44,63 z m -524,-16 c -9,-19 -15,-29 -16,-22 0,15 22,64 27,60 2,-2 -3,-19 -11,-38 z m 1132.004,39 c 13,-13 -1,-38 -22,-38 -21,0 -20,-13 -29,-30 -22,-36 -36,-37 -59,-6 -20,27 -15,34 37,62 48,26 57,28 73,12 z m 424,23 c 40,-32 92,-76 114,-97 l 42,-39 -8,-83 c -7,-76 -20,-112 -40,-112 -20,0 -23,25 -40,54 -17,30 -40,58 -50,61 -11,4 -24,14 -30,24 -6,12 -25,20 -55,23 -25,3 -49,8 -52,12 -3,3 -9,25 -13,48 -4,24 -11,52 -15,63 -6,17 -5,17 5,5 9,-12 11,-10 7,12 -2,15 0,25 4,22 5,-3 9,0 9,6 0,13 32,59 42,60 4,0 40,-26 80,-59 z m -818,-12 c -56.004,-56 -74.004,-64 -74.004,-33 0,31 -5,12 -12,8 -7,-4 -8,-3 -4,4 4,6 13,9 20,6 8,-3 21,5 30.004,18 21,29 21,48 0,22 -14.004,-18 -15.004,-18 -4.004,3 6.004,13 14.004,22 18.004,21 4,-1 14,1 22,5 68,26 69,12 4,-54 z m -504.004,-129 c 11,-22 20,-41 20,-44 0,-3 -19,-6 -42,-8 -34,-2 -44,-7 -47,-23 -2,-11 -8,-23 -14,-27 -6,-4 -10,-29 -8,-58 l 3,-52 -31,18 c -17,10 -43,36 -58,56 -22,33 -28,36 -42,26 -9.332,-7.34 -10.668,-6.34 -4,3 10,13 8,21 -11,48 -27,36 -25,50 23,170 41,100 33,100 116,10 41,-44 84,-98 95,-119 z m -199,163 c -11,-21 -20,-35 -21,-31 0,12 33,78 38,74 2,-2 -6,-21 -17,-43 z m 2228.004,97 c 13,-6 21,-26 25,-62 4,-29 11,-59 15,-67 14,-22 -8,-59 -38,-66 -48,-10 -82,-110 -49,-143 33,-33 118,15 118,75 0,60 23,59 89,54 77,-5 82,-14 75,-131 -7,-104 -14,-120 -51,-120 -37,0 -96,-84 -78,-139 16,-53 97,-28 119,37 19,54 29,57 79,22 59,-42 65,-74 31,-172 -13,-39 -24,-79 -24,-88 0,-9 -8,-24 -19,-34 -16,-15 -19,-15 -31,-1 -7,9 -15,13 -18,10 -3,-2 -30,32 -61,78 -119,173 -239,322 -364,453 l -77,81 25,17 c 39,25 64,73 59,110 -6,43 1,50 76,73 80,25 77,25 99,13 z m -1001,-90 c -4,-42 -34,-52 -63,-20 -10,11 -26,20 -36,20 -21,0 -34,16 -19,25 6,4 7,11 4,17 -4,6 -2,8 3,5 6,-4 30,8 54,27 l 44,34 8,-37 c 4,-20 7,-52 5,-71 z m -1106.004,80 16,-50 -44,32 c -40,28 -61,50 -32,32 8,-5 9,-2 5,10 -4,9 -3,14 2,11 5,-3 12,-1 16,5 12,19 21,10 37,-40 z m 1819.004,78 c 6,-13 23,-35 37,-50 24,-26 24,-28 8,-52 -9,-14 -25,-30 -35,-36 -11,-5 -25,-26 -31,-45 l -12,-35 -83,72 -84,71 67,48 c 76,53 115,61 133,27 z m 741,-34 c 67,-124 68,-109 -28,-227 -46,-57 -96,-109 -110,-116 l -26,-11 7,50 c 5,39 3,53 -9,66 -9,8 -16,22 -16,30 0,8 -15,16 -40,20 -22,4 -40,8 -40,11 0,38 189,258 214,250 6,-2 28,-34 48,-73 z m -1662,144 25,-10 -40,-34 c -22,-18 -43,-34 -47,-34 -4,0 -8,23 -8,51 0,55 -2,54 70,27 z m -810.004,19 c 0,-2 -17,-19 -37,-38 l -38,-34 34,38 c 33,34 41,42 41,34 z m 2378.004,-29 c -2,-6 -25,-26 -51,-45 l -46,-35 18,54 c 35,99 31,95 58,63 13,-15 22,-32 21,-37 z m -1709,38 c -1,-11 -4,-34 -8,-51 l -6,-30 -33,56 c -17,31 -32,59 -32,62 0,3 18,0 40,-5 32,-8 40,-15 39,-32 z m -432.004,52 c 0,-7 3,-40 7,-73 l 7,-60 -55,60 c -51,56 -55,59 -71,43 -16,-15 -13,-23 55,-132 64,-105 99,-180 87,-192 -12,-12 -20,2 -40,11 -32,13 -38,13 -51,0 -13,-13 -22,-15 -30,-15 -8,0 -18,-13 -22,-40 -4,-22 -10,-40 -14,-40 -12,0 -77,76 -85,99 -3,12 -11,19 -16,16 -5,-3 -6,2 -2,11 4,12 3,15 -5,10 -8,-5 -10,-1 -5,10 4,12 3,15 -5,10 -8,-5 -10,-1 -5,10 4,12 3,15 -5,10 -8,-5 -10,-1 -5,10 4,12 3,15 -5,10 -8,-5 -10,-1 -5,10 4,12 3,15 -5,10 -8,-5 -10,-1 -5,10 4,12 3,15 -5,10 -8,-5 -10,-1 -5,10 4,10 2,15 -4,11 -5,-3 -9,3 -8,14 1,11 21,39 44,63 24,24 42,47 42,50 -1,4 3,14 9,24 7.332,10.66 9.332,10.66 6,0 -7,-22 -3,-22 33,-4 15,8 59,21 97,30 38,8 69,15 70,15 0,1 1,-5 1,-11 z m 1227.004,-35 c -6,-57 -31,-143 -42,-143 -11,0 -152,95 -152,101 0,6 31,20 70,39 38,18 66,38 63,43 -3,6 -1,7 5,4 5,-4 21,-3 34,2 12,6 24,10 26,10 1,1 -1,-25 -4,-56 z m -959,37 c 23,-9 121,-250 111,-275 -7,-18 -37,-20 -54,-2 -7,6 -33,13 -58,13 -38,1 -47,-2 -65.004,-28 l -21,-29 -28,44 c -15,24 -43,99 -62,165 l -35,121 26,4 c 36,5 162.004,-4 186.004,-13 z m 1683,75 c 53,-16 120,-63 105,-74 -5,-3 -36,-55 -68,-116 -53,-101 -107,-175 -127,-175 -20,0 -8,11 -8,24 0,34 -10,56 -25,56 -15,0 -18,7 -26,16 -12,15 -26,14 -81,-2 -16,-5 -16,-2 -4,38 18,60 143,248 165,248 22,0 40,-7 69,-15 z m -158,27 c 0,-4 -16,-23 -35,-42 -30,-29 -35,-31 -35,-14 0,46 12,64 41,64 29,0 29,-4 29,-8 z m -154,-90 c -29,-92 -69,-172 -85,-172 -16,0 -16,12 -28,28 -16,22 -27,27 -60,26 -24,0 -52,-9 -71,-22 -16,-12 -33,-22 -36,-22 -16,0 -3,64 30,142 34,82 39,89 73,98 39,10 192,28 202,23 4,-1 -7,-47 -25,-101 z m -186,241 c -167,-14 -344,-65 -529,-154 l -124,-59 -99,35 c -268,95 -536.004,101 -738.004,16 -150,-63 -385,-213 -445,-283 -128,-152 -203,-306 -248.9999,-508 -30,-134 -39,-259 -33,-458 6,-217 31,-390 86.9999,-606 l 31,-120 -30,-110 c -47.9999,-175 -68.9999,-286 -92.9999,-496 -20.00001,-176 -21.00001,-208 -10.00001,-335 C 36.9961,875.879 128.996,633.879 302.996,451.879 c 68,-71 125,-113 272,-198 131,-76 190,-101 293,-126 196.004,-46.0001 445.004,-21 660.004,66 l 60,24 114,-58 c 326,-165.00009 650,-204.0001 907,-109.0001 57,21 211,104.0001 315,170.0001 74,47 196,168 242,240 119,186 182,406 199,689.001 14,246 -39,608 -132,902 -26,81 -26,83 -10,135 10,29 14,58 10,65 -4,6 -3,8 3,5 12,-8 67,188 59,209 -3,8 -2,13 3,10 11,-7 55,225 49,258 -3,15 -1,23 5,19 6,-3 8,8 5,30 -2,20 -1,34 3,32 7.99,-5 19,150 19,264 0,114 -35,376 -82.01,515 -29,84 -100,228 -142.99,286 -87.01,119 -272.01,255 -487.01,357 -119.99,57 -287,87 -427.99,76 v 0"
         style="fill:#211d1d;fill-opacity:1;fill-rule:nonzero;stroke:none"
         transform="matrix(0.13333333,0,0,-0.13333333,0,590.61333)" />
      <path
         id="path3"
         d="m 1068,3372.88 c -13,-16 -12,-17 4,-4 16,13 21,21 13,21 -8,0 -10,-8 -17,-17"
         style="fill:#211d1d;fill-opacity:1;fill-rule:nonzero;stroke:none"
         transform="matrix(0.13333333,0,0,-0.13333333,0,590.61333)" />
      <path
         id="path4"
         d="m 3670.76,2976.02 v 1076.21 h 212.3 V 3186.1 h 244.73 v -210.08 h -457.03"
         style="fill:#211d1d;fill-opacity:1;fill-rule:nonzero;stroke:none"
         transform="matrix(0.13333333,0,0,-0.13333333,0,590.61333)" />
      <path
         id="path5"
         d="m 4584.04,3167.67 c 55.04,0 96.2,28.75 123.48,86.25 27.27,57.49 40.9,143.98 40.9,259.47 0,116.47 -13.63,203.45 -40.9,260.94 -27.28,57.5 -68.44,86.25 -123.48,86.25 -55.04,0 -96.08,-28.63 -123.1,-85.88 -27.03,-57.25 -40.54,-144.36 -40.54,-261.31 0,-116.47 13.51,-203.21 40.54,-260.21 27.02,-57.01 68.06,-85.51 123.1,-85.51 z m 378.89,330.97 c 0,-164.13 -34.4,-294.48 -103.2,-391.05 -68.81,-96.56 -160.69,-144.84 -275.69,-144.84 -118.93,0 -211.55,48.52 -277.9,145.58 -66.34,97.05 -99.51,232.07 -99.51,405.06 0,172.49 33.54,307.75 100.62,405.79 67.08,98.04 159.34,147.06 276.79,147.06 117.94,0 210.57,-50.13 277.9,-150.37 67.32,-100.26 100.99,-239.33 100.99,-417.23"
         style="fill:#211d1d;fill-opacity:1;fill-rule:nonzero;stroke:none"
         transform="matrix(0.13333333,0,0,-0.13333333,0,590.61333)" />
      <path
         id="path6"
         d="m 5125.81,2977.49 v 1074.74 h 207.87 v -469.55 l 210.09,469.55 h 223.35 l -221.87,-490.19 229.24,-584.55 h -229.24 l -211.57,524.1 v -524.1 h -207.87"
         style="fill:#211d1d;fill-opacity:1;fill-rule:nonzero;stroke:none"
         transform="matrix(0.13333333,0,0,-0.13333333,0,590.61333)" />
      <path
         id="path7"
         d="m 6044.25,3332.05 h 143.01 c -14.74,75.19 -28.02,153.94 -39.81,236.26 -11.79,82.3 -22.11,169.17 -30.96,260.57 -10.81,-80.6 -22.24,-162.29 -34.28,-245.09 -12.04,-82.82 -24.68,-166.72 -37.96,-251.74 z m -286.74,-356.03 250.62,1076.21 h 224.82 l 238.84,-1076.21 h -214.51 l -36.11,188.7 h -215.99 l -33.16,-188.7 h -214.51"
         style="fill:#211d1d;fill-opacity:1;fill-rule:nonzero;stroke:none"
         transform="matrix(0.13333333,0,0,-0.13333333,0,590.61333)" />
      <path
         id="path8"
         d="m 6580.13,2976.02 v 1076.21 h 212.3 V 3186.1 h 244.72 v -210.08 h -457.02"
         style="fill:#211d1d;fill-opacity:1;fill-rule:nonzero;stroke:none"
         transform="matrix(0.13333333,0,0,-0.13333333,0,590.61333)" />
      <path
         id="path9"
         d="m 7359.99,3585.63 c 2.45,0 6.5,-0.25 12.15,-0.74 5.65,-0.5 9.7,-0.74 12.17,-0.74 46.68,0 81.82,13.02 105.41,39.07 23.59,26.05 35.38,64.37 35.38,114.99 0,51.61 -10.82,89.2 -32.43,112.79 -21.63,23.59 -56.28,35.38 -103.94,35.38 -7.37,0 -13.02,-0.13 -16.96,-0.37 -3.93,-0.25 -7.61,-0.62 -11.05,-1.11 z m -207.88,-609.61 v 1076.21 h 223.35 c 122.85,0 211.93,-24.08 267.21,-72.23 55.28,-48.17 82.93,-125.08 82.93,-230.73 0,-76.66 -14.13,-138.21 -42.38,-184.65 -28.26,-46.44 -70.9,-79 -127.89,-97.67 l 206.39,-490.93 h -226.29 l -175.44,445.23 v -445.23 h -207.88"
         style="fill:#211d1d;fill-opacity:1;fill-rule:nonzero;stroke:none"
         transform="matrix(0.13333333,0,0,-0.13333333,0,590.61333)" />
      <path
         id="path10"
         d="m 8072.77,4265.27 c 0,-20.16 7.48,-37.48 22.48,-51.97 14.99,-14.5 32.55,-21.75 52.7,-21.75 20.15,0 37.6,7.25 52.34,21.75 14.74,14.49 22.12,31.81 22.12,51.97 0,20.64 -7.38,38.32 -22.12,53.07 -14.74,14.74 -32.19,22.12 -52.34,22.12 -20.15,0 -37.48,-7.26 -51.96,-21.75 -14.5,-14.5 -22.24,-32.32 -23.22,-53.44 z m -1.48,-933.22 h 143.01 c -14.74,75.19 -28.02,153.94 -39.81,236.26 -11.79,82.3 -22.11,169.17 -30.96,260.57 -10.81,-80.6 -22.24,-162.29 -34.28,-245.09 -12.04,-82.82 -24.68,-166.72 -37.96,-251.74 z m -87.72,933.22 c 0,45.7 16.09,84.51 48.29,116.46 32.18,31.94 70.88,47.92 116.09,47.92 45.71,0 84.41,-15.85 116.11,-47.55 31.69,-31.69 47.54,-70.65 47.54,-116.83 0,-45.22 -15.85,-83.67 -47.54,-115.37 -31.7,-31.69 -70.4,-47.54 -116.11,-47.54 -45.21,0 -83.91,15.85 -116.09,47.54 -32.2,31.7 -48.29,70.15 -48.29,115.37 z M 7784.55,2976.02 8035.17,4052.23 H 8260 l 238.83,-1076.21 h -214.51 l -36.11,188.7 h -215.99 l -33.16,-188.7 h -214.51"
         style="fill:#211d1d;fill-opacity:1;fill-rule:nonzero;stroke:none"
         transform="matrix(0.13333333,0,0,-0.13333333,0,590.61333)" />
      <path
         id="path11"
         d="m 8819.46,3175.05 h 16.95 c 76.16,0 134.4,28.61 174.7,85.87 40.29,57.24 60.45,140.42 60.45,249.52 0,116.95 -19.54,203.82 -58.61,260.58 -39.07,56.75 -98.9,85.14 -179.49,85.14 h -14 z m -212.3,-199.03 v 1076.21 h 184.28 c 166.1,0 290.07,-44.48 371.89,-133.41 81.82,-88.96 122.73,-224.1 122.73,-405.43 0,-109.1 -15,-200.5 -44.96,-274.21 -29.98,-73.72 -76.92,-134.66 -140.8,-182.82 -37.84,-29 -80.71,-49.63 -128.62,-61.92 -47.92,-12.29 -115.62,-18.42 -203.09,-18.42 h -161.43"
         style="fill:#211d1d;fill-opacity:1;fill-rule:nonzero;stroke:none"
         transform="matrix(0.13333333,0,0,-0.13333333,0,590.61333)" />
      <path
         id="path12"
         d="m 9422.19,2976.02 v 1076.21 h 452.6 v -199.02 h -244.73 v -217.46 h 221.87 V 3438.2 h -221.87 v -252.1 h 244.73 v -210.08 h -452.6"
         style="fill:#211d1d;fill-opacity:1;fill-rule:nonzero;stroke:none"
         transform="matrix(0.13333333,0,0,-0.13333333,0,590.61333)" />
      <path
         id="path13"
         d="m 10151.2,2976.02 v 877.19 h -164.4 v 199.02 h 544.7 v -199.02 h -164.3 v -877.19 h -216"
         style="fill:#211d1d;fill-opacity:1;fill-rule:nonzero;stroke:none"
         transform="matrix(0.13333333,0,0,-0.13333333,0,590.61333)" />
      <path
         id="path14"
         d="m 3670.76,1575.2 v 1076.22 h 464.4 v -199.03 h -256.53 v -223.35 h 234.41 V 2030.75 H 3878.63 V 1575.2 h -207.87"
         style="fill:#211d1d;fill-opacity:1;fill-rule:nonzero;stroke:none"
         transform="matrix(0.13333333,0,0,-0.13333333,0,590.61333)" />
      <path
         id="path15"
         d="m 4289.93,1575.2 v 1076.22 h 452.6 V 2452.39 H 4497.8 v -217.45 h 221.88 V 2037.39 H 4497.8 v -252.1 h 244.73 V 1575.2 h -452.6"
         style="fill:#211d1d;fill-opacity:1;fill-rule:nonzero;stroke:none"
         transform="matrix(0.13333333,0,0,-0.13333333,0,590.61333)" />
      <path
         id="path16"
         d="m 5125.81,2184.81 c 2.45,0 6.51,-0.25 12.16,-0.74 5.64,-0.49 9.7,-0.73 12.16,-0.73 46.68,0 81.82,13.01 105.42,39.07 23.58,26.03 35.38,64.37 35.38,114.99 0,51.6 -10.82,89.19 -32.43,112.78 -21.63,23.59 -56.28,35.38 -103.94,35.38 -7.38,0 -13.03,-0.12 -16.96,-0.36 -3.94,-0.26 -7.62,-0.63 -11.06,-1.11 z M 4917.94,1575.2 v 1076.22 h 223.35 c 122.84,0 211.92,-24.08 267.21,-72.24 55.28,-48.17 82.93,-125.07 82.93,-230.72 0,-76.67 -14.13,-138.22 -42.38,-184.65 -28.27,-46.45 -70.9,-79.01 -127.9,-97.68 l 206.4,-490.93 h -226.3 l -175.44,445.24 V 1575.2 h -207.87"
         style="fill:#211d1d;fill-opacity:1;fill-rule:nonzero;stroke:none"
         transform="matrix(0.13333333,0,0,-0.13333333,0,590.61333)" />
      <path
         id="path17"
         d="m 5848.92,2184.81 c 2.45,0 6.51,-0.25 12.16,-0.74 5.64,-0.49 9.7,-0.73 12.17,-0.73 46.68,0 81.81,13.01 105.41,39.07 23.58,26.03 35.38,64.37 35.38,114.99 0,51.6 -10.82,89.19 -32.43,112.78 -21.63,23.59 -56.28,35.38 -103.95,35.38 -7.36,0 -13.02,-0.12 -16.95,-0.36 -3.94,-0.26 -7.62,-0.63 -11.06,-1.11 z M 5641.05,1575.2 v 1076.22 h 223.35 c 122.84,0 211.92,-24.08 267.21,-72.24 55.28,-48.17 82.93,-125.07 82.93,-230.72 0,-76.67 -14.13,-138.22 -42.39,-184.65 -28.26,-46.45 -70.89,-79.01 -127.89,-97.68 l 206.4,-490.93 h -226.3 l -175.44,445.24 V 1575.2 h -207.87"
         style="fill:#211d1d;fill-opacity:1;fill-rule:nonzero;stroke:none"
         transform="matrix(0.13333333,0,0,-0.13333333,0,590.61333)" />
      <path
         id="path18"
         d="m 6372.98,1575.2 v 1076.22 h 218.94 V 1575.2 h -218.94"
         style="fill:#211d1d;fill-opacity:1;fill-rule:nonzero;stroke:none"
         transform="matrix(0.13333333,0,0,-0.13333333,0,590.61333)" />
      <path
         id="path19"
         d="m 6902.96,1575.2 v 877.19 h -164.38 v 199.03 h 544.75 V 2452.39 H 7118.94 V 1575.2 h -215.98"
         style="fill:#211d1d;fill-opacity:1;fill-rule:nonzero;stroke:none"
         transform="matrix(0.13333333,0,0,-0.13333333,0,590.61333)" />
      <path
         id="path20"
         d="m 7386.49,1612.8 v 223.35 c 27.02,-23.59 53.55,-41.28 79.61,-53.08 26.04,-11.79 52.33,-17.68 78.88,-17.68 36.35,0 64.98,9.58 85.87,28.74 20.88,19.17 31.32,45.21 31.32,78.14 0,40.78 -28.26,85.01 -84.76,132.68 -15.73,13.27 -27.53,23.59 -35.38,30.96 -65.86,58.97 -111.07,111.92 -135.64,158.85 -24.58,46.93 -36.85,100.13 -36.85,159.59 0,92.88 26.16,167.94 78.5,225.2 52.34,57.24 120.76,85.88 205.3,85.88 29.96,0 59.58,-4.32 88.81,-12.9 29.24,-8.61 60.08,-22.01 92.51,-40.18 v -190.18 c -37.84,18.17 -67.2,30.71 -88.08,37.59 -20.89,6.88 -39.44,10.32 -55.66,10.32 -30.95,0 -56.27,-9.71 -75.92,-29.11 -19.66,-19.42 -29.49,-44.86 -29.49,-76.3 0,-27.52 7.38,-53.2 22.12,-77.03 14.74,-23.84 49.13,-59.1 103.2,-105.78 72.23,-61.92 118.68,-113.41 139.31,-154.42 20.65,-41.05 30.97,-90.56 30.97,-148.54 0,-97.8 -27.65,-175.07 -82.93,-231.82 -55.28,-56.77 -130.61,-85.15 -225.94,-85.15 -36.37,0 -69.91,4.18 -100.61,12.54 -30.72,8.35 -59.1,21.12 -85.14,38.33"
         style="fill:#211d1d;fill-opacity:1;fill-rule:nonzero;stroke:none"
         transform="matrix(0.13333333,0,0,-0.13333333,0,590.61333)" />
      <path
         id="path21"
         d="m 8029.25,1575.2 v 1076.22 h 212.3 v -866.13 h 244.73 V 1575.2 h -457.03"
         style="fill:#211d1d;fill-opacity:1;fill-rule:nonzero;stroke:none"
         transform="matrix(0.13333333,0,0,-0.13333333,0,590.61333)" />
      <path
         id="path22"
         d="m 8601.24,1575.2 v 1076.22 h 452.59 v -199.03 h -244.72 v -217.45 h 221.87 v -197.55 h -221.87 v -252.1 h 244.72 V 1575.2 h -452.59"
         style="fill:#211d1d;fill-opacity:1;fill-rule:nonzero;stroke:none"
         transform="matrix(0.13333333,0,0,-0.13333333,0,590.61333)" />
      <path
         id="path23"
         d="m 9422.37,1575.2 -306.65,1076.22 h 217.46 l 126.79,-487.25 c 12.27,-47.67 22.72,-98.54 31.32,-152.58 8.59,-54.06 15.36,-110.83 20.27,-170.28 3.44,55.02 9.22,109.2 17.32,162.53 8.12,53.31 18.3,105.29 30.6,155.9 l 123.84,491.68 h 223.35 L 9602.23,1575.2 h -179.86"
         style="fill:#211d1d;fill-opacity:1;fill-rule:nonzero;stroke:none"
         transform="matrix(0.13333333,0,0,-0.13333333,0,590.61333)" />
      <path
         id="path24"
         d="m 3878.63,783.988 c 2.46,0 6.51,-0.25 12.17,-0.726 5.64,-0.5 9.69,-0.742 12.16,-0.742 46.68,0 81.82,13.011 105.41,39.07 23.59,26.031 35.39,64.371 35.39,114.988 0,51.602 -10.82,89.192 -32.44,112.782 -21.63,23.59 -56.28,35.38 -103.94,35.38 -7.37,0 -13.02,-0.12 -16.95,-0.37 -3.94,-0.25 -7.63,-0.61 -11.06,-1.1 z M 3670.76,174.379 V 1250.6 h 223.36 c 122.84,0 211.92,-24.08 267.2,-72.24 55.29,-48.17 82.93,-125.07 82.93,-230.731 0,-76.66 -14.13,-138.207 -42.38,-184.649 -28.27,-46.441 -70.89,-79 -127.89,-97.671 l 206.39,-490.93 h -226.3 L 3878.63,619.621 V 174.379 h -207.87"
         style="fill:#211d1d;fill-opacity:1;fill-rule:nonzero;stroke:none"
         transform="matrix(0.13333333,0,0,-0.13333333,0,590.61333)" />
      <path
         id="path25"
         d="m 4735.16,366.031 c 55.03,0 96.19,28.75 123.47,86.25 27.27,57.5 40.91,143.989 40.91,259.469 0,116.469 -13.64,203.449 -40.91,260.949 -27.28,57.491 -68.44,86.241 -123.47,86.241 -55.05,0 -96.08,-28.63 -123.1,-85.881 -27.03,-57.239 -40.55,-144.348 -40.55,-261.309 0,-116.461 13.52,-203.211 40.55,-260.211 27.02,-57.008 68.05,-85.508 123.1,-85.508 z m 378.88,330.981 c 0,-164.141 -34.4,-294.481 -103.19,-391.051 -68.81,-96.57 -160.7,-144.852 -275.69,-144.852 -118.93,0 -211.56,48.532 -277.9,145.59 -66.35,97.051 -99.51,232.071 -99.51,405.051 0,172.488 33.54,307.76 100.61,405.8 67.08,98.03 159.34,147.06 276.8,147.06 117.94,0 210.56,-50.13 277.9,-150.38 67.32,-100.25 100.98,-239.332 100.98,-417.218"
         style="fill:#211d1d;fill-opacity:1;fill-rule:nonzero;stroke:none"
         transform="matrix(0.13333333,0,0,-0.13333333,0,590.61333)" />
      <path
         id="path26"
         d="M 5276.92,174.379 V 1250.6 h 212.31 V 384.469 h 244.73 v -210.09 h -457.04"
         style="fill:#211d1d;fill-opacity:1;fill-rule:nonzero;stroke:none"
         transform="matrix(0.13333333,0,0,-0.13333333,0,590.61333)" />
      <path
         id="path27"
         d="M 5848.92,174.379 V 1250.6 h 464.4 V 1051.57 H 6056.79 V 828.219 H 6291.2 V 629.93 H 6056.79 V 174.379 h -207.87"
         style="fill:#211d1d;fill-opacity:1;fill-rule:nonzero;stroke:none"
         transform="matrix(0.13333333,0,0,-0.13333333,0,590.61333)" />
      <path
         id="path28"
         d="m 6434.91,211.98 v 223.348 c 27.02,-23.598 53.55,-41.277 79.61,-53.078 26.04,-11.789 52.33,-17.68 78.87,-17.68 36.36,0 64.98,9.578 85.87,28.739 20.89,19.171 31.33,45.211 31.33,78.14 0,40.781 -28.26,85.012 -84.76,132.68 -15.74,13.269 -27.53,23.59 -35.39,30.961 -65.85,58.969 -111.06,111.922 -135.63,158.851 -24.58,46.93 -36.86,100.129 -36.86,159.59 0,92.879 26.17,167.939 78.51,225.199 52.33,57.24 120.76,85.88 205.29,85.88 29.96,0 59.58,-4.31 88.82,-12.9 29.24,-8.61 60.08,-22.01 92.51,-40.18 v -190.18 c -37.84,18.18 -67.21,30.71 -88.08,37.59 -20.89,6.88 -39.44,10.32 -55.66,10.32 -30.96,0 -56.27,-9.7 -75.93,-29.12 -19.65,-19.41 -29.48,-44.839 -29.48,-76.288 0,-27.532 7.37,-53.204 22.12,-77.032 14.74,-23.84 49.13,-59.101 103.19,-105.781 72.24,-61.91 118.69,-113.398 139.32,-154.418 20.64,-41.051 30.97,-90.562 30.97,-148.543 0,-97.797 -27.65,-175.066 -82.93,-231.816 -55.29,-56.774 -130.61,-85.153 -225.94,-85.153 -36.37,0 -69.91,4.18 -100.62,12.539 -30.71,8.352 -59.1,21.122 -85.13,38.332"
         style="fill:#211d1d;fill-opacity:1;fill-rule:nonzero;stroke:none"
         transform="matrix(0.13333333,0,0,-0.13333333,0,590.61333)" />
      <path
         id="path29"
         d="m 7178.65,174.379 v 877.191 h -164.39 v 199.03 h 544.75 V 1051.57 H 7394.62 V 174.379 h -215.97"
         style="fill:#211d1d;fill-opacity:1;fill-rule:nonzero;stroke:none"
         transform="matrix(0.13333333,0,0,-0.13333333,0,590.61333)" />
      <path
         id="path30"
         d="M 7695.36,174.379 V 1250.6 h 452.59 V 1051.57 H 7903.23 V 834.121 H 8125.1 V 636.57 H 7903.23 V 384.469 h 244.72 v -210.09 h -452.59"
         style="fill:#211d1d;fill-opacity:1;fill-rule:nonzero;stroke:none"
         transform="matrix(0.13333333,0,0,-0.13333333,0,590.61333)" />
      <path
         id="path31"
         d="m 8535.66,373.398 h 16.95 c 76.17,0 134.4,28.633 174.7,85.883 40.29,57.25 60.45,140.418 60.45,249.528 0,116.953 -19.54,203.812 -58.6,260.57 -39.08,56.761 -98.91,85.141 -179.5,85.141 h -14 z M 8323.36,174.379 V 1250.6 h 184.28 c 166.11,0 290.07,-44.48 371.89,-133.43 81.82,-88.94 122.73,-224.08 122.73,-405.42 0,-109.102 -15,-200.488 -44.96,-274.211 -29.98,-73.719 -76.92,-134.648 -140.8,-182.809 -37.84,-29 -80.71,-49.648 -128.62,-61.921 -47.92,-12.289 -115.62,-18.43 -203.09,-18.43 h -161.43"
         style="fill:#211d1d;fill-opacity:1;fill-rule:nonzero;stroke:none"
         transform="matrix(0.13333333,0,0,-0.13333333,0,590.61333)" />
    </g>
  </g>
</svg>
